<?xml version="1.0" encoding="UTF-8" standalone="no"?>
<!-- Created with Inkscape (http://www.inkscape.org/) -->

<svg
   xmlns:dc="http://purl.org/dc/elements/1.1/"
   xmlns:cc="http://creativecommons.org/ns#"
   xmlns:rdf="http://www.w3.org/1999/02/22-rdf-syntax-ns#"
   xmlns:svg="http://www.w3.org/2000/svg"
   xmlns="http://www.w3.org/2000/svg"
   xmlns:sodipodi="http://sodipodi.sourceforge.net/DTD/sodipodi-0.dtd"
   xmlns:inkscape="http://www.inkscape.org/namespaces/inkscape"
   sodipodi:docname="pumpman_trace_inkscape.svg"
   inkscape:version="0.91 r13725"
   version="1.1"
   id="svg2"
   viewBox="0 0 315.81632 297.13172"
   height="297.13171"
   width="315.81631">
  <defs
     id="defs4" />
  <sodipodi:namedview
     inkscape:window-maximized="0"
     inkscape:window-y="158"
     inkscape:window-x="391"
     inkscape:window-height="630"
     inkscape:window-width="1152"
     fit-margin-bottom="0"
     fit-margin-right="0"
     fit-margin-left="0"
     fit-margin-top="0"
     units="px"
     showgrid="false"
     inkscape:current-layer="layer1"
     inkscape:document-units="px"
     inkscape:cy="90.790948"
     inkscape:cx="92.78904"
     inkscape:zoom="1"
     inkscape:pageshadow="2"
     inkscape:pageopacity="0.0"
     borderopacity="1.0"
     bordercolor="#666666"
     pagecolor="#ffffff"
     id="base" />
  <metadata
     id="metadata7">
    <rdf:RDF>
      <cc:Work
         rdf:about="">
        <dc:format>image/svg+xml</dc:format>
        <dc:type
           rdf:resource="http://purl.org/dc/dcmitype/StillImage" />
        <dc:title></dc:title>
      </cc:Work>
    </rdf:RDF>
  </metadata>
  <g
     inkscape:label="レイヤー 1"
     inkscape:groupmode="layer"
     id="layer1"
     transform="translate(-12.891549,-83.875685)">
    <path
       style="fill:#000000"
       d="m 202.15236,380.48577 c -4.57385,-1.1861 -12.84156,-5.93518 -17.06106,-9.8001 l -3.73099,-3.41745 -4.97831,2.14161 c -5.91561,2.54483 -16.59565,3.02613 -21.73434,0.97947 -5.47762,-2.18165 -12.63895,-7.80613 -15.05406,-11.82339 -1.22462,-2.03703 -2.3457,-3.86345 -2.49128,-4.0587 -0.14558,-0.19526 -1.71233,1.29375 -3.48167,3.30891 -4.74066,5.39932 -10.27873,7.94873 -17.16606,7.90227 -13.31863,-0.0899 -31.861348,-13.82299 -39.530771,-29.27735 -3.348836,-6.74811 -3.684062,-8.1765 -3.696178,-15.74939 -0.01275,-7.96588 -0.111217,-8.32825 -2.263325,-8.32883 -2.351876,-6.3e-4 -4.660163,-1.87824 -7.334741,-5.96623 l -1.584742,-2.42222 -6.601881,6.99834 c -11.270639,11.94747 -23.476828,16.1117 -32.704099,11.15724 -8.19446,-4.3999 -11.961453,-16.59315 -8.647794,-27.99174 2.91229,-10.01792 15.852933,-24.85984 31.49474,-36.12203 7.707275,-5.54928 28.088414,-16.62902 32.898867,-17.88472 l 2.27035,-0.59264 -3.472671,-5.92521 c -1.909969,-3.25887 -4.613797,-9.32457 -6.008507,-13.47934 -6.589678,-19.63031 -5.097202,-35.84154 4.534487,-49.25342 l 3.187527,-4.43856 -0.890768,-8.79003 c -0.489922,-4.83452 -0.823427,-13.74004 -0.74112,-19.79004 0.227026,-16.68785 5.058077,-31.34422 15.557884,-47.199287 2.284663,-3.449919 4.260766,-6.165747 4.39134,-6.035173 0.130574,0.130574 -0.244018,2.341245 -0.832428,4.912601 -0.812637,3.551229 -0.76379,5.414054 0.20318,7.748527 1.587862,3.833442 3.86392,3.923702 8.15288,0.323333 2.75712,-2.314464 3.15174,-2.433247 2.49165,-0.75 -0.43137,1.1 -1.0299,3.462499 -1.33007,5.249999 -0.73663,4.38659 1.94271,4.40305 5.55615,0.0341 3.5807,-4.329336 9.32116,-9.956077 9.73505,-9.542192 0.18404,0.184039 -0.30036,2.117389 -1.07644,4.296335 -3.01092,8.453557 -1.20641,12.255977 4.17037,8.787707 l 2.83079,-1.82599 -1.8562,2.8769 c -1.69816,2.63195 -3.92141,8.6231 -3.19995,8.6231 0.16734,0 2.37194,-1.15565 4.89912,-2.56812 2.52718,-1.41247 5.46512,-2.42497 6.52876,-2.25 1.33526,0.21965 5.29167,-2.95142 12.78108,-10.24404 12.71709,-12.382922 19.62151,-16.402034 28.21482,-16.424051 4.654,-0.01192 5.65021,0.342633 7.36702,2.621976 1.0919,1.44967 2.21875,4.707153 2.50411,7.238851 0.48569,4.309089 0.27109,4.850359 -3.35996,8.474564 -2.79305,2.78778 -5.55832,4.33827 -9.8788,5.53906 -7.93128,2.20433 -15.08564,5.48891 -17.24949,7.91927 -1.72815,1.94099 -1.70964,1.9452 1.44983,0.3293 4.33517,-2.21721 4.58991,-2.09878 2.82534,1.31353 -0.83912,1.62269 -1.52568,4.55924 -1.52568,6.52568 l 0,3.57534 2.95034,-1.52568 c 3.43371,-1.77564 4.41169,-1.92047 3.54966,-0.52568 -0.33992,0.55 0.0931,1 0.96222,1 0.86914,0 4.0457,-2.38797 7.05902,-5.3066 6.00352,-5.81487 6.53371,-5.72106 3.37112,0.59644 l -2.10764,4.21016 4.35764,-4.05449 c 4.41796,-4.11061 11.97206,-10.39918 19.49338,-16.22767 l 4.13573,-3.2049 -2.362,5.74353 c -3.32939,8.09588 -3.21819,8.35867 2.60126,6.14746 7.34867,-2.79228 7.87869,-2.38589 3.15954,2.42258 -3.49756,3.56375 -6.27079,8.10921 -10.99934,18.02843 -0.36443,0.76447 1.14864,0.46689 5.82907,-1.14644 0.825,-0.28437 0.23539,0.84281 -1.31026,2.50484 -2.73272,2.93852 -2.75222,3.03706 -0.70656,3.57201 3.05654,0.7993 7.87013,-0.84097 12.74799,-4.34398 2.34786,-1.6861 4.26883,-2.77374 4.26883,-2.41698 0,0.35676 -1.30985,2.52222 -2.91078,4.81213 -1.60093,2.28992 -3.2293,5.24857 -3.61859,6.57479 l -0.7078,2.41131 3.36858,-2.09896 c 1.85273,-1.15443 7.30698,-4.41134 12.12057,-7.23759 4.81359,-2.82625 11.19574,-7.12931 14.18255,-9.56235 6.36641,-5.18604 8.158,-5.74279 4.00256,-1.24382 l -2.93709,3.1799 3.5,-2.2206 c 9.70269,-6.15596 17.29566,-9.22663 26.7685,-10.82544 9.50654,-1.6045 21.92142,-1.23909 20.77766,0.61156 -0.26447,0.42791 -2.63304,1.59328 -5.2635,2.58971 -6.59976,2.50002 -12.28266,6.21174 -12.28266,8.02227 0,0.83171 1.2375,1.99207 2.75,2.57857 2.62843,1.01923 2.33005,1.2313 -6.75,4.79721 -19.82511,7.7857 -24.36273,10.82944 -22.11973,14.83745 0.79654,1.42335 2.59161,1.74727 10.29227,1.85725 5.1301,0.0733 10.33996,-0.24738 11.57746,-0.71254 1.2375,-0.46515 2.25,-0.51512 2.25,-0.11104 0,0.99623 -3.34363,3.06966 -10.39198,6.44424 -3.24059,1.55151 -5.71559,2.97075 -5.5,3.15386 1.17167,0.99518 14.38692,-1.44305 20.00642,-3.69121 9.80148,-3.92121 14.08228,-4.35827 18.07611,-1.84555 1.8202,1.14518 4.36846,3.44321 5.6628,5.10674 1.69641,2.18026 4.2088,3.59356 9,5.0628 6.48506,1.98866 14.69042,5.85935 12.59839,5.94301 -2.36671,0.0946 -35.95146,7.21069 -36.43148,7.71923 -0.28614,0.30314 1.50474,0.23294 3.97974,-0.15601 l 4.5,-0.70716 -3.46778,2.95642 c -3.43241,2.92627 -3.44415,2.96391 -1.15123,3.69166 1.27409,0.40438 4.29709,0.43823 6.71777,0.0752 4.69767,-0.70446 5.6638,0.19296 2.40124,2.23047 -3.23114,2.01788 -2.31643,3.23207 2.4349,3.23207 5.83549,0 9.30842,1.39728 13.5651,5.45772 1.925,1.83625 4.95702,3.64401 6.73782,4.01724 2.1268,0.44575 4.61235,2.28217 7.24355,5.35182 2.20314,2.57027 4.00862,4.97445 4.01217,5.34261 0.004,0.36817 -1.68104,0.15547 -3.74354,-0.47266 -2.20661,-0.67201 -10.12934,-1.09345 -19.25,-1.02397 -12.69087,0.0967 -18.6716,0.6919 -33,3.28427 -27.13117,4.90869 -26.76302,4.8098 -18.375,4.93588 3.91875,0.0589 8.57324,0.39674 10.3433,0.75075 3.04722,0.60944 2.82794,0.76821 -4.125,2.98661 -5.00612,1.59725 -9.7601,2.34721 -14.93675,2.35634 -7.84578,0.0138 -14.10785,1.66009 -23.15655,6.0877 -2.6125,1.27832 -4.75,2.63555 -4.75,3.01607 0,0.38052 1.81853,2.87835 4.04119,5.55074 5.05832,6.08182 9.43569,14.92126 11.56753,23.35888 2.74871,10.87911 0.56462,25.56259 -5.65229,38 -2.08255,4.16629 -2.15947,4.93588 -1.03731,10.37772 0.66663,3.23275 3.71905,10.69434 6.78316,16.58131 6.59812,12.67675 7.66127,18.81739 5.46082,31.54097 -1.29987,7.51615 -1.68919,8.31434 -6.43715,13.19733 -2.79653,2.87607 -7.2266,6.13213 -9.91895,7.29035 -5.35292,2.30276 -15.58711,3.37591 -20.36896,2.13587 z m 21.56196,-5.26172 c 0,-0.474 0.60929,-0.86183 1.35398,-0.86183 3.78524,0 10.38618,-10.09261 9.14945,-13.9892 -0.37526,-1.18235 -0.12852,-2.75762 0.56234,-3.59004 0.99666,-1.2009 0.89057,-1.7322 -0.55725,-2.79087 -1.36379,-0.99723 -1.54873,-1.73562 -0.77915,-3.11078 1.10448,-1.9736 0.561,-5.51911 -0.846,-5.51911 -0.48585,0 -0.88337,0.45 -0.88337,1 0,0.55 -0.45,1 -1,1 -0.55,0 -1,-0.51289 -1,-1.13976 0,-0.62686 -0.7875,-1.75186 -1.75,-2.5 -1.66253,-1.29225 -1.65858,-1.43111 0.079,-2.77828 1.48487,-1.15121 1.61938,-1.80981 0.71481,-3.5 -0.61277,-1.14508 -1.78448,-2.08196 -2.60374,-2.08196 -0.81927,0 -1.93589,-1.17391 -2.48139,-2.60869 -0.85382,-2.2457 -1.2133,-2.42488 -2.58347,-1.28775 -1.32691,1.10124 -1.78154,1.07774 -2.73342,-0.14131 -0.62799,-0.80424 -1.81679,-1.46225 -2.64179,-1.46225 -0.98159,0 -1.39187,-0.77762 -1.18714,-2.25 0.24292,-1.74702 -0.17953,-2.25 -1.88976,-2.25 -1.21144,0 -2.80733,0.7875 -3.54642,1.75 -1.25465,1.63389 -1.38581,1.60072 -1.97688,-0.5 -0.71129,-2.52803 -2.3998,-3.05573 -2.3998,-0.75 0,2.12673 -1.24375,1.86037 -3.50207,-0.75 -1.88999,-2.18462 -1.95702,-2.19189 -2.3066,-0.25 -0.19803,1.1 -0.88459,2.45 -1.52569,3 -0.71567,0.61397 -1.23145,4.77398 -1.33613,10.77647 -0.15155,8.69014 -0.47675,10.30135 -2.92658,14.5 -1.51585,2.59794 -3.2437,5.17353 -3.83967,5.72353 -0.59597,0.55 -2.1223,2.18678 -3.39184,3.63728 l -2.30826,2.63728 2.99649,3.4128 c 3.58288,4.08069 12.03792,8.55292 18.19025,9.62162 4.75561,0.82608 18.9501,-1.38147 18.9501,-2.94715 z m -21.97104,-4.82277 c -0.80907,-0.51167 -1.18048,-1.22087 -0.82536,-1.57599 0.87435,-0.87435 4.7964,0.43751 4.7964,1.60432 0,1.18988 -2.0681,1.17513 -3.97104,-0.0283 z m 5.97104,-1.03906 c 0,-0.55 0.42344,-1 0.94098,-1 0.51754,0 1.2191,0.45 1.55902,1 0.33992,0.55 -0.0835,1 -0.94098,1 -0.85746,0 -1.55902,-0.45 -1.55902,-1 z m 9,-1.46862 c 0,-0.89208 0.5866,-1.24351 1.49426,-0.89521 0.82184,0.31537 1.24528,0.97625 0.94098,1.46861 -0.87262,1.41193 -2.43524,1.04399 -2.43524,-0.5734 z m -18.4159,-16.17282 c -0.52667,-1.37248 -0.38034,-1.43434 0.89301,-0.37756 1.73524,1.44013 1.91584,2.019 0.62988,2.019 -0.49116,0 -1.17646,-0.73865 -1.52289,-1.64144 z m -34.22247,15.14144 c -0.31659,-0.825 -1.41334,-1.5 -2.43723,-1.5 -1.24394,0 -1.67064,0.4977 -1.28603,1.5 0.31659,0.825 1.41334,1.5 2.43723,1.5 1.24394,0 1.67064,-0.4977 1.28603,-1.5 z m 10.97732,-0.6814 c 1.08213,-0.57914 1.50288,-1.37677 0.99444,-1.88521 -1.06339,-1.06339 -6.18572,0.15907 -6.56437,1.56661 -0.14796,0.55 -0.79976,1.00574 -1.44844,1.01275 -0.64868,0.007 -1.54868,0.40422 -2,0.88266 -1.0349,1.09712 6.47586,-0.2161 9.01837,-1.57681 z m -21.62555,-1.45879 c 0.27925,-0.83777 -3.66949,-3.35981 -5.26045,-3.35981 -1.23438,0 -0.23153,3.02935 1.29705,3.91807 1.97772,1.14985 3.4638,0.94053 3.9634,-0.55826 z m 11.2866,-2.29293 c 0,-1.51281 0.67201,-1.91401 3.09077,-1.84524 1.69993,0.0483 3.31217,0.66483 3.58276,1.36998 0.79698,2.0769 3.32647,0.40505 3.32647,-2.19861 0,-1.31615 0.34999,-2.39301 0.77776,-2.39301 1.52117,0 3.75313,3.5299 3.39447,5.36843 -0.231,1.18415 0.0458,1.61483 0.75593,1.17597 1.37908,-0.85232 0.9429,-4.78991 -0.75754,-6.83882 -1.05908,-1.27611 -0.75263,-1.76762 1.93941,-3.11058 3.90515,-1.94815 3.88997,-1.94778 3.88997,-0.095 0,2.83153 3.19356,1.04305 3.57125,-2 0.0683,-0.55 0.19266,-1.6176 0.27644,-2.37244 0.11612,-1.04634 0.47766,-1.10243 1.52157,-0.23607 3.49935,2.90421 3.58695,-24.25221 0.11459,-35.52863 -0.36375,-1.1813 -0.17187,-2.43764 0.42903,-2.80902 1.58673,-0.98065 1.33088,-2.58461 -0.31173,-1.95428 -2.21236,0.84896 -2.96536,-1.53963 -1.12608,-3.57201 1.4143,-1.56279 1.45306,-1.97555 0.2523,-2.68699 -1.98037,-1.17335 -3.06963,-7.27199 -1.41241,-7.90793 1.43785,-0.55175 1.59805,-7.80357 0.23822,-10.78355 -0.54688,-1.19846 -0.41367,-2.11727 0.3779,-2.60648 0.67238,-0.41556 1.11698,-1.38264 0.988,-2.14908 -0.12899,-0.76644 0.1118,-2.18675 0.53508,-3.15625 0.44035,-1.00863 0.27916,-2.35368 -0.3768,-3.14406 -0.877,-1.05671 -0.78991,-1.7378 0.37057,-2.89829 0.83433,-0.83433 1.64947,-3.54813 1.81141,-6.03067 0.17709,-2.71467 1.08087,-5.41621 2.26755,-6.77804 l 1.97311,-2.26433 -3.08881,2.14238 c -4.38885,3.04407 -5.57155,4.7219 -7.0783,10.04154 l -1.32959,4.6942 0.27564,-4.2591 c 0.16775,-2.59195 -0.12647,-4.11707 -0.75165,-3.89625 -0.56501,0.19956 -0.89603,1.21615 -0.73559,2.25909 0.20036,1.30253 0.0262,1.50625 -0.55632,0.65063 -0.66588,-0.9781 -1.74874,-0.89183 -5.0417,0.40169 -2.30652,0.90602 -4.20369,1.91656 -4.21592,2.24563 -0.0122,0.32907 -0.91967,1.72331 -2.01655,3.09831 l -1.99432,2.5 0.99181,-2.75 c 1.15056,-3.19021 0.80501,-3.33034 -2.80441,-1.13723 -3.81314,2.31689 -10.86522,11.50428 -15.66702,20.41084 -4.39142,8.14539 -8.3969,14.25706 -9.70738,14.8118 -0.43579,0.18448 -0.53799,0.74698 -0.2271,1.25 0.31088,0.50302 0.0573,0.91459 -0.5636,0.91459 -0.62086,0 -3.00992,1.26892 -5.30901,2.81982 -2.2991,1.55091 -5.65179,3.40928 -7.45043,4.12971 -4.4968,1.80118 -8.46419,6.62425 -7.28011,8.85029 0.4974,0.9351 1.14809,2.48768 1.44598,3.45018 0.77582,2.50676 2.5983,2.16129 2.63765,-0.5 l 0.0333,-2.25 1.87702,2.25 c 2.25672,2.70514 5.27274,3.01605 4.85028,0.5 -0.16987,-1.01165 0.33903,-1.76115 1.20616,-1.77643 0.825,-0.0145 2.03141,-0.35938 2.6809,-0.76631 2.12282,-1.33003 2.57315,1.34337 1.87799,11.14875 -0.7194,10.14708 -0.25242,13.14399 2.0481,13.14399 0.80008,0 1.39301,1.012 1.39301,2.37756 0,1.30765 0.675,2.93775 1.5,3.62244 1.22851,1.01957 1.5,0.95124 1.5,-0.37756 0,-0.89234 0.675,-1.62244 1.5,-1.62244 0.97619,0 1.5,0.97778 1.5,2.8 0,2.97182 1.57198,5.2 3.66862,5.2 0.71681,0 1.01824,-0.65244 0.69301,-1.5 -0.82185,-2.1417 2.30187,-1.92024 3.5264,0.25 0.79087,1.40166 1.23867,1.50119 2.24969,0.5 2.01202,-1.99244 3.13486,-1.45623 2.61753,1.25 -0.40063,2.09577 -0.0961,2.5 1.88342,2.5 1.6674,0 2.3613,-0.56807 2.3613,-1.93312 z m 14,-90.17135 c 0,-0.77794 0.9,-1.9765 2,-2.66346 1.1,-0.68696 2,-0.86495 2,-0.39553 0,0.46942 -0.9,1.66797 -2,2.66346 -1.53758,1.39149 -2,1.48294 -2,0.39553 z m -54.26101,89.80902 c 0.68144,-0.51214 0.96129,-1.38049 0.62188,-1.92966 -0.3394,-0.54917 -0.021,-1.36692 0.70761,-1.81721 1.01807,-0.62921 0.75839,-1.27976 -1.12189,-2.81052 l -2.44659,-1.9918 2.75,-1.05293 c 3.30058,-1.26374 3.59894,-3.64716 0.55616,-4.44287 -2.09659,-0.54827 -2.11684,-0.65878 -0.45683,-2.49307 1.53094,-1.69168 1.55394,-1.98963 0.19384,-2.51155 -0.84874,-0.32569 -1.54317,-1.46416 -1.54317,-2.52994 0,-1.44543 -0.50814,-1.80488 -2,-1.41475 -2.25906,0.59076 -2.37876,0.0972 -1.07718,-4.44112 0.67098,-2.3396 0.60276,-3.15647 -0.25,-2.9934 -0.64505,0.12335 -1.11994,-0.50551 -1.05531,-1.39746 0.0775,-1.06955 -0.47147,-1.46772 -1.61229,-1.16939 -1.1361,0.2971 -1.91653,-0.26174 -2.27389,-1.62826 -0.33587,-1.28438 -1.35764,-2.08062 -2.66993,-2.08062 -1.26837,0 -2.44979,-0.87568 -2.92895,-2.17097 -0.53214,-1.43852 -1.04726,-1.7759 -1.52679,-1 -1.02247,1.6544 -2.60566,1.45448 -2.60566,-0.32903 0,-0.83333 -0.88889,-1.5 -2,-1.5 -2.11808,0 -2.68878,-1.45628 -0.98369,-2.51008 1.50915,-0.93271 0.0222,-2.71869 -1.71001,-2.05397 -0.94636,0.36316 -1.682914,-0.1601 -2.015476,-1.43182 -0.534982,-2.04578 -2.290828,-2.81541 -2.290828,-1.00413 0,0.55 -0.675,1 -1.5,1 -0.833333,0 -1.5,-0.88889 -1.5,-2 0,-2.56354 -2.605895,-2.61506 -3.272826,-0.0647 -0.372468,1.42431 -1.084618,1.784 -2.69725,1.36228 -1.534546,-0.40129 -2.045224,-1.13106 -1.704162,-2.43528 0.609926,-2.33236 -1.859361,-2.52009 -2.746291,-0.20879 -0.571899,1.49034 -0.775114,1.46567 -2.059525,-0.25 -1.34526,-1.79696 -1.463271,-1.71853 -2.108446,1.40131 -0.490709,2.37291 -1.10368,3.14355 -2.173761,2.73292 -1.268254,-0.48667 -1.424468,0.68305 -1.048313,7.84972 0.603921,11.50621 4.298559,19.03499 13.565289,27.64277 9.400819,8.73234 18.342959,12.93343 27.130869,12.74632 3.63793,-0.0775 7.17197,-0.55985 7.85341,-1.07199 z m -11.73899,-15.20455 c 0,-0.825 0.45,-1.5 1,-1.5 0.55,0 1,0.675 1,1.5 0,0.825 -0.45,1.5 -1,1.5 -0.55,0 -1,-0.675 -1,-1.5 z m -9.54112,-14.56653 c -0.36254,-0.58659 -0.41903,-1.30665 -0.12555,-1.60014 0.71631,-0.71631 2.66667,0.54583 2.66667,1.72569 0,1.27797 -1.72642,1.19267 -2.54112,-0.12555 z m -10.835345,-2.47213 c -0.964979,-2.51469 -0.680311,-3.16355 0.498534,-1.13634 0.58369,1.00375 0.850598,2.03566 0.593129,2.29313 -0.257468,0.25747 -0.748717,-0.26309 -1.091663,-1.15679 z m -4.440206,-1.67801 c -0.650833,-0.65083 -1.183333,-1.86846 -1.183333,-2.70584 0,-1.04512 0.502303,-0.80536 1.601999,0.76467 1.754641,2.5051 1.469117,3.82896 -0.418666,1.94117 z m 55.788771,29.68305 c -2.09147,-2.52006 -3.10595,-1.60029 -1.29067,1.17017 0.95014,1.45011 1.90306,2.10998 2.11759,1.46638 0.21454,-0.6436 -0.15758,-1.83004 -0.82692,-2.63655 z m -8.48954,-7.96638 c 0.78442,-3.94901 1.31456,-18.49933 0.67288,-18.4682 -0.36049,0.0175 -1.52895,0.6925 -2.59657,1.5 -1.06762,0.80751 -3.40356,1.4682 -5.19098,1.4682 -4.77851,0 -5.43385,2.69772 -1.04894,4.31802 1.27659,0.47172 1.62921,1.26994 1.18261,2.67705 -0.49679,1.56525 -0.18295,2.00493 1.43105,2.00493 2.3813,0 2.73522,2.20086 0.6343,3.94447 -1.22809,1.01922 -1.15657,1.46587 0.5,3.12244 2.6169,2.6169 2.43337,3.79239 -0.78303,5.01526 -2.10265,0.79943 -2.39735,1.22967 -1.30477,1.90492 1.56281,0.96587 5.79136,-3.90225 6.50345,-7.48709 z m 53.10814,5.75736 c -0.6935,-0.69349 -2.5907,0.71555 -2.5907,1.9241 0,0.6631 0.57378,0.58723 1.52417,-0.20152 0.83829,-0.69572 1.31823,-1.47088 1.06653,-1.72258 z m 49.07158,-3.50736 c -0.27741,-0.6875 -0.50439,-0.125 -0.50439,1.25 0,1.375 0.22698,1.9375 0.50439,1.25 0.27741,-0.6875 0.27741,-1.8125 0,-2.5 z m 0.28802,-10.14308 c -1.71972,-12.41024 -10.3924,-24.26896 -21.67026,-29.63115 -3.65247,-1.73661 -6.56826,-2.27631 -12.36072,-2.28791 -4.16938,-0.008 -8.10688,0.31002 -8.75,0.7075 -1.23558,0.76363 -1.5857,6.35598 -0.56454,9.01711 0.33264,0.86682 0.97654,1.34629 1.43091,1.06547 0.45436,-0.28081 1.10877,-0.0532 1.45423,0.50575 0.96278,1.55781 3.51008,1.20679 3.51008,-0.48369 0,-2.21211 2.10245,-1.82424 2.71025,0.5 0.53958,2.06337 5.28975,2.96136 5.28975,1 0,-0.55 0.675,-1 1.5,-1 0.825,0 1.5,0.62252 1.5,1.38337 0,1.60937 4.33855,3.0376 4.83333,1.59111 0.42461,-1.24132 3.16667,-1.28272 3.16667,-0.0478 0,0.50967 0.78669,1.07817 1.7482,1.26335 0.96381,0.18561 1.74901,1.22806 1.75,2.32332 10e-4,1.46373 0.59404,1.92395 2.2518,1.74844 1.74946,-0.18522 2.25,0.2728 2.25,2.05887 0,2.35971 2.91059,7.19339 2.9682,4.92934 0.0565,-2.22181 1.84618,-1.32845 3.34086,1.6677 0.9522,1.90875 1.11608,3.25716 0.4739,3.89934 -1.37237,1.37237 -0.0366,4.9768 2.01403,5.43462 0.93665,0.20911 1.76307,0.35053 1.83647,0.31427 0.0734,-0.0363 -0.23402,-2.71782 -0.68316,-5.95901 z m -110.4503,-10.60692 c -0.33992,-0.55 -1.29303,-1 -2.11803,-1 -0.825,0 -1.22189,0.45 -0.88197,1 0.33992,0.55 1.29303,1 2.11803,1 0.825,0 1.22189,-0.45 0.88197,-1 z m 5.5,0 c 0,-0.55 -0.675,-1 -1.5,-1 -0.825,0 -1.5,0.45 -1.5,1 0,0.55 0.675,1 1.5,1 0.825,0 1.5,-0.45 1.5,-1 z m -12.79509,-9.83973 c 0.86823,-2.21031 3.16049,-5.05132 5.40169,-6.69483 5.69946,-4.17952 6.30695,-4.90282 2.50479,-2.98233 -4.01248,2.02673 -5.86902,1.42271 -13.61139,-4.42841 -2.75,-2.07825 -6.52965,-4.29075 -8.39923,-4.91667 -5.45482,-1.82623 -15.619003,-1.42446 -19.95751,0.78888 -4.13029,2.10712 -7.190527,5.07309 -5.234324,5.07309 0.634606,0 1.412851,-0.675 1.729434,-1.5 0.796033,-2.07443 3.346601,-1.88849 3.429306,0.25 0.0532,1.37569 0.303724,1.25991 1.171234,-0.54128 0.652167,-1.35408 1.680514,-2.06988 2.514108,-1.75 0.775804,0.2977 1.876233,0.54128 2.445397,0.54128 0.569164,0 0.799488,0.9 0.511832,2 -0.580105,2.21833 1.186844,2.70291 3.052588,0.83716 0.883786,-0.88379 1.41192,-0.50771 2.200777,1.56714 0.803259,2.11273 1.489961,2.58652 3.037158,2.09545 1.5589,-0.49477 1.99923,-0.17918 1.99923,1.43286 0,2.8007 2.77941,2.64111 3.18044,-0.18261 0.3739,-2.63266 2.09824,-2.66875 2.81956,-0.059 0.275,0.99496 1.0625,1.80902 1.75,1.80902 0.6875,0 1.25,0.3375 1.25,0.75 0,0.4125 0,1.2 0,1.75 0,0.55 -0.7301,1 -1.62245,1 -1.31854,0 -1.39253,0.27703 -0.39499,1.47899 0.94069,1.13346 1.69525,1.22863 3.2298,0.40736 2.55606,-1.36796 4.87412,0.42717 2.98764,2.31365 -1.72717,1.72717 -1.47876,2.8 0.64831,2.8 1.21496,0 2.36514,-1.31573 3.3566,-3.83973 z m -91.843288,-1.66027 c -0.316582,-0.825 -0.752459,-1.5 -0.968615,-1.5 -0.216156,0 -0.393011,0.675 -0.393011,1.5 0,0.825 0.435877,1.5 0.968615,1.5 0.532739,0 0.709594,-0.675 0.393011,-1.5 z m 5.638374,0.5 c 0,-0.55 -0.648442,-1 -1.440983,-1 -0.792541,0 -1.719098,0.45 -2.059017,1 -0.339919,0.55 0.308524,1 1.440983,1 1.132459,0 2.059017,-0.45 2.059017,-1 z m 5.153219,-1.24678 c -1.035102,-1.0351 -3.153219,-0.22084 -3.153219,1.21218 0,0.46605 0.929739,0.60423 2.066087,0.30707 1.347779,-0.35246 1.725738,-0.88065 1.087132,-1.51925 z m -5.023401,-5.23597 c 0.598822,-0.62895 1.145896,-0.17892 1.519567,1.25 0.321133,1.22801 0.926293,2.23275 1.344802,2.23275 1.551661,0 2.904924,-2.6698 2.376844,-4.68918 -0.299897,-1.1468 -0.05606,-2.38745 0.541851,-2.75698 0.597915,-0.36953 1.087118,-0.17559 1.087118,0.43098 0,0.60657 0.7875,0.97063 1.75,0.80902 1.160933,-0.19493 1.70128,0.30704 1.605264,1.49124 -0.114966,1.41792 0.142142,1.547 1.25,0.62756 0.926291,-0.76875 1.394736,-0.80036 1.394736,-0.0941 0,0.58488 -0.45,1.34154 -1,1.68146 -0.55,0.33992 -1,1.05185 -1,1.58207 0,0.53022 1.160278,0.20379 2.578395,-0.72539 2.195718,-1.43869 2.344134,-1.82053 1,-2.57275 -0.868117,-0.48582 -1.578395,-2.03473 -1.578395,-3.44203 0,-2.21127 0.330427,-2.47578 2.433353,-1.94798 2.092885,0.52528 2.477658,0.22563 2.75,-2.1416 0.252412,-2.19398 0.778641,-2.70301 2.594035,-2.50926 1.608483,0.17167 2.545039,-0.46091 3.188642,-2.15371 0.899015,-2.36459 0.958652,-2.37457 4.440047,-0.74307 1.957561,0.91739 3.543292,2.40665 3.561358,3.3447 0.0446,2.31604 2.019575,3.37507 2.085017,1.11804 0.04554,-1.57074 0.259188,-1.51265 1.621972,0.44098 1.945242,2.78862 4.325576,2.92619 4.325576,0.25 0,-1.82765 1.095151,-2.36977 4.625,-2.28948 2.243563,0.051 1.13781,-5.38407 -2.730613,-13.42176 -2.903644,-6.0331 -3.777797,-8.90511 -3.295422,-10.82704 0.376419,-1.49978 0.103621,-3.64893 -0.639393,-5.03726 -1.489469,-2.7831 -0.674646,-4.26281 1.399479,-2.54144 1.097509,0.91085 1.536274,0.83214 1.992781,-0.3575 0.321969,-0.83903 0.343843,-2.155 0.04861,-2.92437 -0.651909,-1.69885 1.19448,-3.0656 2.119487,-1.5689 0.456974,0.7394 1.09315,0.70383 2.08143,-0.11637 1.069409,-0.88753 1.144569,-1.51709 0.302282,-2.53199 -0.88017,-1.06054 -0.511301,-1.58256 1.716871,-2.42971 1.875095,-0.71291 2.951685,-0.73759 3.173298,-0.0728 0.184473,0.55342 0.994742,0.7532 1.800599,0.44397 0.877584,-0.33676 1.236405,-1.2831 0.894715,-2.35967 -0.69559,-2.19161 1.409736,-3.74741 2.557643,-1.89006 0.68364,1.10615 1.257916,1.09923 3.388197,-0.0409 3.583393,-1.91778 3.200166,-3.32598 -0.684964,-2.51696 -3.074442,0.6402 -3.141964,0.59408 -1.25,-0.85382 1.956911,-1.49761 1.914835,-1.6182 -1.952948,-5.59731 -3.536937,-3.63874 -6.559605,-5.51408 -5.111813,-3.1715 0.304301,0.49236 -0.155946,1.16736 -1.02277,1.5 -3.233884,1.24095 -3.690256,0.5259 -1.336783,-2.09449 l 2.424314,-2.69918 -2.714817,1.69927 c -3.639783,2.27823 -4.496968,2.14327 -2.238389,-0.35244 1.555292,-1.71858 0.530426,-1.49232 -6.312043,1.39346 -9.997446,4.21639 -22.872362,11.53642 -30.234751,17.18996 -5.035589,3.86681 -18,16.80367 -18,17.96176 0,0.27022 -1.0125,1.6558 -2.25,3.07905 -1.2375,1.42325 -2.265946,2.88917 -2.285435,3.2576 -0.01949,0.36843 -0.626886,1.73668 -1.349769,3.04056 -1.09734,1.97928 -1.091489,2.23982 0.03544,1.5781 0.742373,-0.43591 0.504823,0.17119 -0.527888,1.34912 -1.032711,1.17794 -2.040547,3.54071 -2.239636,5.25062 -0.199089,1.70991 -0.618202,3.5235 -0.931361,4.0302 -0.313159,0.50671 -0.155225,0.92128 0.350965,0.92128 0.50619,0 0.718865,1.05397 0.472612,2.34217 -0.255237,1.33518 0.234319,3.02421 1.138672,3.92857 0.872523,0.87252 1.586405,2.26699 1.586405,3.09881 0,0.83183 0.45,1.79053 1,2.13045 0.55,0.33992 1,-0.30852 1,-1.44098 0,-2.44638 1.53895,-2.70529 2.790204,-0.46942 0.489272,0.87428 1.299132,1.43678 1.799691,1.25 0.500558,-0.18678 1.057345,0.69917 1.237305,1.96877 0.275243,1.94182 0.568504,2.10811 1.846777,1.04724 1.25561,-1.04206 1.713944,-0.92192 2.638494,0.69163 1.104851,1.92821 1.123713,1.92762 1.500288,-0.0472 0.209754,-1.1 0.80243,-2.44224 1.317059,-2.98275 z M 79.55319,254.79778 c 1.244576,-1.68544 3.702473,-3.89329 5.461995,-4.90631 l 3.199131,-1.84187 -2.323127,2.5486 c -1.724865,1.89228 -1.982389,2.68477 -1,3.07736 0.864103,0.34533 0.703805,0.55615 -0.462056,0.60771 -0.981851,0.0434 -2.989749,0.86645 -4.461995,1.82895 l -2.676812,1.75 2.262864,-3.06444 z m -58.338874,61.56444 c -0.339919,-0.55 -1.068034,-1 -1.618034,-1 -0.55,0 -0.721885,0.45 -0.381966,1 0.339919,0.55 1.068034,1 1.618034,1 0.55,0 0.721885,-0.45 0.381966,-1 z m 203.539204,-2.39689 c -1.18812,-3.12501 -1.12422,-8.26201 0.15481,-12.44517 0.71927,-2.35243 0.69783,-3.6661 -0.0724,-4.43635 -0.79238,-0.79238 -0.64145,-1.59466 0.54705,-2.90794 1.53688,-1.69823 1.50419,-1.81365 -0.51365,-1.81365 -2.26032,0 -2.89028,-1.42753 -1.11431,-2.52514 0.57237,-0.35375 0.77765,-1.4719 0.45617,-2.4848 -0.37118,-1.16947 0.0702,-2.22701 1.20932,-2.89754 1.41003,-0.83001 1.51398,-1.2406 0.48584,-1.91908 -0.8499,-0.56085 -1.07361,-1.79701 -0.63876,-3.5296 0.56921,-2.26788 0.40478,-2.56496 -1.10005,-1.98751 -1.54223,0.59181 -1.69633,0.22932 -1.20076,-2.82451 0.67323,-4.14865 -0.41304,-6.36791 -2.68937,-5.4944 -2.0263,0.77757 -3.41693,-2.19167 -1.56307,-3.33742 0.73271,-0.45284 1.00695,-1.5395 0.63388,-2.5117 -0.51938,-1.3535 -0.95559,-1.4662 -2.07597,-0.53636 -1.12684,0.9352 -1.63834,0.76629 -2.48817,-0.82163 -1.40677,-2.62857 -1.36357,-4.42994 0.0848,-3.53482 0.67883,0.41954 0.88443,0.27653 0.499,-0.3471 -0.36052,-0.58335 -1.66755,-0.84691 -2.90451,-0.58571 -1.98162,0.41846 -2.04094,0.34195 -0.499,-0.64357 2.27685,-1.45522 2.22485,-2.55773 -0.12898,-2.73504 -1.03814,-0.0782 -2.35036,0.83345 -2.93232,2.03719 -0.57934,1.19831 -1.0838,1.59389 -1.12102,0.87908 -0.0372,-0.71481 0.67686,-2.73981 1.58685,-4.5 1.43868,-2.78282 1.45029,-3.03093 0.089,-1.90178 -0.86906,0.72087 -1.81579,0.89358 -2.12811,0.38823 -0.90461,-1.46368 -1.07329,-6.63697 -0.25935,-7.95395 0.50274,-0.81346 0.24111,-1.01551 -0.79842,-0.6166 -0.85041,0.32633 -1.29722,0.99618 -0.99292,1.48854 0.3043,0.49237 0.14498,0.89522 -0.35405,0.89522 -0.49903,0 -1.62627,1.9125 -2.50497,4.25 -0.8787,2.3375 -1.05946,3.42352 -0.40169,2.41338 3.18887,-4.89716 3.62989,-5.30203 3.66415,-3.36381 0.0175,0.98976 -1.5432,3.42129 -3.4682,5.4034 -1.925,1.98211 -3.5,4.31009 -3.5,5.17329 0,1.05149 0.97149,0.50582 2.94363,-1.6534 3.51542,-3.84889 5.81531,-4.31078 3.44396,-0.69165 -0.91218,1.39216 -1.86005,2.32966 -2.10638,2.08333 -0.67101,-0.67101 -3.9993,2.92054 -4.66756,5.03674 -0.32108,1.0168 -1.24008,7.69872 -2.04222,14.84872 -0.80213,7.15 -1.76757,15.55995 -2.14541,18.68877 -0.83332,6.9005 -0.10609,9.62052 2.08581,7.80141 0.81847,-0.67929 1.48815,-0.89987 1.48815,-0.49018 0,0.40969 0.76138,0.12729 1.69196,-0.62756 1.45665,-1.18157 1.58513,-1.16383 0.92381,0.12756 -0.42248,0.825 0.16614,0.43765 1.30804,-0.86078 1.14191,-1.29844 2.07619,-1.90306 2.07619,-1.34362 0,0.55944 1.0125,0.79075 2.25,0.51403 1.46663,-0.32796 0.86889,0.3683 -1.71685,1.99983 l -3.96686,2.50296 4.96686,0.65456 c 7.09342,0.93481 13.25127,3.36041 16.85096,6.63763 3.8025,3.46187 3.78017,3.45767 2.65509,0.4985 z M 52.714316,310.3032 c 0,-0.51754 -0.45,-0.94098 -1,-0.94098 -0.55,0 -1,0.70156 -1,1.55902 0,0.85746 0.45,1.2809 1,0.94098 0.55,-0.33992 1,-1.04148 1,-1.55902 z m 73.750974,-0.57152 c 2.24775,-0.60237 2.24667,-0.60812 -0.75214,-4.02357 -3.81031,-4.33971 -5.84924,-9.22173 -6.63166,-15.8789 -0.60644,-5.15993 -0.68306,-5.26189 -4.40096,-5.8564 -4.63337,-0.74091 -8.62403,-5.10104 -9.50958,-10.39003 -0.82689,-4.93864 -3.42141,-13.08076 -4.3514,-13.65552 -1.507884,-0.93193 -11.741488,4.68148 -15.937756,8.74229 -8.711693,8.43048 -10.150799,15.36011 -5.128028,24.69267 1.628051,3.025 2.960196,6.0625 2.960321,6.75 2.96e-4,1.61365 0.468263,1.57645 4.155609,-0.33035 6.82656,-3.53015 20.539224,-0.93994 26.844624,5.07072 2.63453,2.51139 7.81054,5.50248 9.5,5.48981 0.55,-0.004 2.01293,-0.27894 3.25097,-0.61072 z m -68.750974,-4.61435 c 0,-0.55783 -0.66326,-0.44954 -1.5,0.24489 -0.825,0.68469 -1.5,1.69489 -1.5,2.24489 0,0.55783 0.66326,0.44954 1.5,-0.24489 0.825,-0.68469 1.5,-1.69489 1.5,-2.24489 z m 84.104894,-1.86279 c 2.73627,-2.80923 6.31882,-7.76972 7.96123,-11.02331 l 2.9862,-5.91561 -5.25975,2.75024 c -6.72512,3.51647 -10.8873,3.39113 -19.02421,-0.5729 -3.53453,-1.72191 -6.7876,-3.13074 -7.22906,-3.13074 -1.26134,0 0.0431,7.31775 2.06337,11.57513 2.50656,5.28217 8.39665,11.24018 11.21225,11.34154 1.53372,0.0552 3.99382,-1.64033 7.28997,-5.02435 z m 50.89511,-10.09232 c 0,-1.61542 -0.29571,-1.90429 -1.11287,-1.08713 -0.61207,0.61207 -0.81052,1.60207 -0.44098,2.2 1.03439,1.67368 1.55385,1.30164 1.55385,-1.11287 z m 0,-5.35902 c 0,-0.85746 -0.45734,-1.27636 -1.01631,-0.9309 -0.55897,0.34546 -0.75742,1.04702 -0.44098,1.55902 0.85723,1.38704 1.45729,1.12841 1.45729,-0.62812 z m 1.86645,-13.43602 c 0.65588,-6.04727 1.48072,-11.74609 1.83297,-12.66404 0.43102,-1.12322 0.25787,-1.43256 -0.52948,-0.94595 -0.64347,0.39769 -1.16994,2.04651 -1.16994,3.66405 0,1.61754 -0.49878,2.94098 -1.10841,2.94098 -0.66434,0 -0.87192,0.94225 -0.51811,2.35191 0.32466,1.29355 -0.0315,4.74909 -0.79153,7.67897 -1.32503,5.10812 -1.19507,7.96912 0.362,7.96912 0.40149,0 1.26661,-4.94777 1.9225,-10.99504 z m 37.14367,0.62841 c 0.0111,-8.95474 -3.70414,-22.62851 -5.15084,-18.95723 -0.49446,1.25478 -0.74064,0.63537 -0.78899,-1.98516 -0.0419,-2.26987 -0.47437,-3.55928 -1.07029,-3.19098 -0.55081,0.34042 -1.03157,-0.41915 -1.07029,-1.69098 -0.0664,-2.18136 -0.1178,-2.19845 -0.92971,-0.30902 -0.789,1.83611 -0.86644,1.79514 -0.94503,-0.5 -0.0627,-1.83132 -0.31973,-2.13032 -0.96096,-1.11787 -0.68809,1.08643 -1.01953,0.92789 -1.54923,-0.74105 -0.37063,-1.16775 -0.44889,-2.48721 -0.17392,-2.93213 0.27498,-0.44492 -0.59773,-0.80895 -1.93936,-0.80895 -1.96992,0 -2.33433,0.39448 -1.89369,2.05 0.42983,1.61494 0.22595,1.51944 -0.96066,-0.45 -0.82845,-1.375 -1.53223,-2.05 -1.56395,-1.5 -0.0317,0.55 -0.93766,-0.125 -2.0132,-1.5 -1.07554,-1.375 -1.96553,-1.96406 -1.97776,-1.30902 -0.0122,0.65504 0.45433,1.48552 1.03681,1.84551 0.58248,0.36 0.91998,1.84905 0.75,3.30902 -0.24605,2.11335 0.0682,2.58989 1.5413,2.33761 1.1107,-0.19021 1.58678,0.10959 1.19099,0.75 -0.36266,0.58678 -0.18282,1.06688 0.39964,1.06688 0.58246,0 1.05902,1.09844 1.05902,2.44098 0,3.01333 1.60019,4.13572 3.56797,2.50261 1.7462,-1.44921 1.94865,-1.28659 2.79502,2.24512 0.35439,1.4788 0.21235,2.95571 -0.31565,3.28203 -1.80191,1.11365 0.0739,3.62555 2.20286,2.94985 1.85454,-0.58861 1.95739,-0.3346 1.30376,3.2202 -0.57446,3.1243 -0.46626,3.62117 0.56822,2.60921 2.4001,-2.34785 3.06847,-1.2716 2.36893,3.81464 -0.58781,4.27391 -0.40731,5.27823 1.15616,6.43268 1.48473,1.09631 1.60445,1.61976 0.60273,2.63536 -1.83558,1.86102 -1.52573,2.75219 0.75,2.15707 1.79208,-0.46864 2.00105,-1.36855 2.01012,-8.65638 z m -14.38658,-28.17203 c -0.34295,-0.8937 -0.59502,-2.15061 -0.56015,-2.79313 0.0349,-0.64251 0.49453,-0.0904 1.02148,1.22697 0.52695,1.31735 0.77902,2.57426 0.56015,2.79313 -0.21887,0.21887 -0.67854,-0.33327 -1.02148,-1.22697 z M 75.171611,279.43132 c 0.316431,-0.512 0.117988,-1.21356 -0.440983,-1.55902 -0.558972,-0.34546 -1.016312,0.0734 -1.016312,0.9309 0,1.75653 0.600055,2.01516 1.457295,0.62812 z m 2.972678,-7.18241 c -1.008834,-1.63232 -2.429973,-0.90961 -2.429973,1.23575 0,1.76626 0.24988,1.91507 1.48899,0.8867 0.818944,-0.67967 1.242386,-1.63477 0.940983,-2.12245 z m 3.319891,-4.47016 c -0.952958,-0.95296 -2.863492,0.5906 -2.153308,1.7397 0.422119,0.683 0.981465,0.66575 1.699645,-0.0524 0.588756,-0.58876 0.792905,-1.34803 0.453663,-1.68727 z m 50.51911,-2.92439 c -2.62966,-1.81766 -6.09848,-2.71554 -7.39512,-1.91417 -1.60151,0.98978 2.22754,2.89445 6.09028,3.02947 2.70863,0.0947 2.86365,-0.0378 1.30484,-1.1153 z m 12.96341,-0.32452 c 0.4114,-0.4114 -0.52559,-1.50033 -2.08221,-2.41984 -2.78469,-1.64496 -2.86534,-1.62431 -5.0157,1.28421 l -2.18551,2.95606 4.26771,-0.53621 c 2.34724,-0.29492 4.60431,-0.87282 5.01571,-1.28422 z m -58.213385,-0.69051 c 1.056784,-1.27335 0.994917,-1.41968 -0.377555,-0.89301 -0.902794,0.34643 -1.641444,1.03173 -1.641444,1.52289 0,1.28596 0.578873,1.10536 2.018999,-0.62988 z m 34.871605,1.08016 c -2.19045,-2.19045 -8.43093,-5.56391 -9.51968,-5.14611 -2.58391,0.99154 -1.36917,2.5122 2.87908,3.60416 2.3375,0.60083 4.7,1.25765 5.25,1.4596 1.49987,0.55073 1.88159,0.57334 1.3906,0.0823 z m 28.1094,-0.35288 c 0,-0.43759 1.68661,-0.9092 3.74803,-1.04803 4.92258,-0.33152 5.90648,-1.47084 2.40995,-2.79063 -2.47062,-0.93255 -3.20314,-0.71457 -6.00181,1.78604 -2.02527,1.80958 -2.63497,2.84823 -1.67195,2.84823 0.83368,0 1.51578,-0.35803 1.51578,-0.79561 z m -15,-2.04387 c 0,-1.37848 -4.84414,-3.15756 -6.67965,-2.45321 -1.32597,0.50882 -0.94088,0.92913 1.73815,1.89709 4.25991,1.53914 4.9415,1.61585 4.9415,0.55612 z m -11,-0.64633 c 0,-1.23612 -8.01691,-5.62177 -9.07789,-4.96605 -0.78021,0.48219 0.15183,1.55177 2.69228,3.08956 3.6246,2.19406 6.38561,3.00541 6.38561,1.87649 z m 27.69528,-2.72997 c 1.92346,-2.12541 0.58625,-2.31229 -2.08342,-0.29116 -1.32482,1.00297 -2.42401,1.14266 -3.68426,0.46819 -0.98786,-0.52869 -2.6132,-0.94694 -3.61186,-0.92945 -1.69898,0.0298 -1.69081,0.12629 0.12703,1.5012 2.51459,1.90189 7.19658,1.52299 9.25251,-0.74878 z m 28.30502,-8.40587 c 1.92483,-2.66473 3.9497,-5.61478 4.4997,-6.55567 3.79232,-6.48752 5.46893,-10.06393 5.04188,-10.75492 -0.2721,-0.44026 0.41054,-1.61971 1.51697,-2.62102 1.10643,-1.0013 1.76305,-2.46848 1.45916,-3.26039 -0.30388,-0.79192 -0.0778,-2.0119 0.50251,-2.71107 2.88851,-3.48045 3.70159,-17.08363 1.53272,-25.64322 -1.77429,-7.00233 -6.24118,-16.91854 -7.46012,-16.56098 -1.31773,0.38654 -7.09312,-4.48225 -7.09312,-5.97966 0,-0.7752 -0.40285,-1.16048 -0.89522,-0.85618 -0.49236,0.3043 -1.17796,-0.18355 -1.52353,-1.08411 -0.34558,-0.90056 -0.88023,-1.38548 -1.18812,-1.07759 -0.71041,0.71041 -4.39313,-2.9192 -4.39313,-4.32977 0,-2.24668 -9.44433,-5.29358 -17.82088,-5.74931 -9.53688,-0.51886 -10.93584,0.18207 -8.77961,4.39892 2.92721,5.7246 9.52073,25.32468 10.17274,30.23971 0.55647,4.1949 1.05689,5.108 3.07735,5.6151 1.32705,0.33307 4.64878,2.76076 7.38161,5.39486 6.95151,6.70036 6.86306,9.48079 -0.53121,16.69991 l -5.5,5.36972 0,8.69865 0,8.69865 2.07001,-1.87333 c 1.1385,-1.03034 3.46429,-4.02508 5.16841,-6.65499 1.70413,-2.62991 3.47262,-4.78166 3.92999,-4.78166 2.35582,0 -0.44234,14.6963 -4.20091,22.06371 l -2.04203,4.0027 5.78756,-2.92155 c 4.02344,-2.03102 6.85432,-4.39836 9.28727,-7.76651 z m 6.60344,-30.96859 c -0.6801,-1.77234 0.0187,-3.40976 1.45528,-3.40976 0.51754,0 0.94098,1.125 0.94098,2.5 0,2.79733 -1.45932,3.35138 -2.39626,0.90976 z m -25.60374,39.62162 c 0,-0.53273 0.6415,-0.72244 1.42556,-0.42157 0.82113,0.3151 2.05698,-0.4402 2.91476,-1.78139 1.88096,-2.94094 4.69429,-12.46048 3.91329,-13.24147 -1.56862,-1.56862 -3.10826,-0.17774 -4.22722,3.81879 -0.67844,2.42316 -2.07605,5.79115 -3.1058,7.48444 -1.66262,2.73397 -2.16219,2.96846 -4.46153,2.09426 -3.15631,-1.20003 -3.45906,-1.21204 -3.45906,-0.13725 0,0.94058 3.80021,2.97956 5.75,3.08513 0.6875,0.0372 1.25,-0.3682 1.25,-0.90094 z m -50.46892,-1.98108 c -0.27584,-0.44632 -1.74384,-1.04898 -3.26222,-1.33924 l -2.76069,-0.52773 2.35008,1.90297 c 2.20165,1.78279 4.78128,1.75751 3.67283,-0.036 z m -9.10409,-4.52883 c -2.923113,-2.21147 -4.269981,-1.74057 -1.535331,0.5368 1.315411,1.09546 2.632561,1.75084 2.927001,1.4564 0.29443,-0.29443 -0.33182,-1.19137 -1.39167,-1.9932 z m 25.79884,0.38288 3.27417,-2.09566 -3.48661,0.61798 c -3.9308,0.6967 -7.75616,3.57333 -4.75185,3.57333 0.92957,0 3.1635,-0.94304 4.96429,-2.09565 z m -15.44278,-0.7385 c 0.29877,-0.9065 -0.29208,-1.22704 -1.84334,-1 -1.25568,0.18378 -2.48093,0.93452 -2.72277,1.6683 -0.29877,0.9065 0.29209,1.22704 1.84335,1 1.25568,-0.18378 2.48092,-0.93452 2.72276,-1.6683 z m 15.92261,-4.16585 c 0.72141,0 3.17528,1.35 5.45304,3 2.27776,1.65 4.50685,3 4.95354,3 0.44669,0 3.58594,-2.475 6.97612,-5.5 3.52231,-3.14289 7.10969,-5.5 8.37068,-5.5 1.6813,0 2.1589,-0.53573 2.00587,-2.25 -0.11047,-1.2375 0.39177,-3.7125 1.11609,-5.5 0.72432,-1.7875 1.22741,-3.24977 1.11797,-3.2495 -0.10943,2.8e-4 -2.44897,0.84834 -5.19897,1.88457 -7.05309,2.6577 -12.9472,3.48115 -15.42514,2.155 -2.91071,-1.55777 -2.73084,-7.56351 0.51877,-17.3212 2.95564,-8.875 6.04043,-13.09548 10.84017,-14.83109 2.56358,-0.92701 3.30376,-1.74711 3.20051,-3.54613 -0.0739,-1.28713 -0.48764,-2.34056 -0.91949,-2.34094 -0.43185,-3.9e-4 -0.30894,-0.89058 0.27314,-1.9782 0.88266,-1.64927 0.7862,-1.87308 -0.58115,-1.34837 -1.40205,0.53801 -1.47271,0.31752 -0.48796,-1.52251 0.63333,-1.1834 0.79818,-2.15396 0.36633,-2.15681 -0.43185,-0.003 -0.89498,-1.90528 -1.02919,-4.22762 -0.25313,-4.38027 -3.78575,-12.62838 -7.34859,-17.15779 -2.88298,-3.66512 -9.58221,-3.71871 -12.72706,-0.1018 -1.19919,1.37918 -2.18034,2.75823 -2.18034,3.06456 0,0.30632 -1.27498,1.62977 -2.83329,2.941 -3.88799,3.27153 -8.35066,12.07679 -12.15696,23.98683 -2.87297,8.9896 -3.14944,10.90936 -2.73616,19 0.46792,9.16046 2.87574,18.59128 5.55308,21.75 0.81582,0.9625 1.11882,1.75 0.67333,1.75 -0.44549,0 -0.12508,0.7875 0.71202,1.75 0.83709,0.9625 1.43204,2.7625 1.3221,4 -0.10993,1.2375 0.14908,2.25 0.57558,2.25 0.42651,0 0.59767,0.92322 0.38036,2.05159 -0.35542,1.84558 0.0216,1.74516 3.75442,-1 2.28224,-1.67837 4.73977,-3.05159 5.46118,-3.05159 z m -3.34403,-36.5 c -0.31659,-0.825 -0.27032,-2.2875 0.1028,-3.25 0.6387,-1.64755 0.75802,-1.64186 2.03831,0.0972 1.39335,1.89264 1.01303,4.6528 -0.64111,4.6528 -0.50842,0 -1.18342,-0.675 -1.5,-1.5 z m -17.86163,38.5 c 0.76562,-3.48588 2.44614,-3.82198 5,-1 0.99549,1.1 2.13714,2 2.537,2 0.39987,0 -0.7345,-4.6125 -2.52082,-10.25 -5.13862,-16.2171 -6.84238,-35.50097 -3.26618,-36.96778 1.127,-0.46225 1.75,-1.80305 1.75,-3.76633 0,-3.53329 7.30795,-19.69622 11.96777,-26.46905 3.1225,-4.53839 3.1407,-4.62898 0.86107,-4.28651 -1.28086,0.19243 -4.24134,1.34672 -6.57884,2.56509 -4.2063,2.19245 -4.25,2.27107 -4.25,7.64568 0,6.723 -1.64953,14.69951 -3.55047,17.1688 -1.15087,1.49496 -1.12208,0.97673 0.14664,-2.6399 0.86823,-2.475 1.81453,-8.325 2.10288,-13 0.46833,-7.59288 0.36848,-8.29693 -0.93568,-6.59722 -0.80298,1.04652 -1.95704,1.59556 -2.56458,1.22008 -0.77784,-0.48073 -1.06415,1.91769 -0.96786,8.10751 0.0752,4.8346 -0.35707,9.6726 -0.96063,10.75111 -0.84713,1.51373 -1.06009,-0.31301 -0.93384,-8.01028 0.09,-5.48416 -0.19093,-11.24215 -0.62417,-12.79553 l -0.78771,-2.82432 -2.881325,1.82432 c -1.58473,1.00338 -2.884462,2.25676 -2.888293,2.78529 -0.0038,0.52852 -0.748566,1.22109 -1.654966,1.53904 -0.9064,0.31795 -1.71427,1.01052 -1.795268,1.53904 -0.081,0.52853 -1.396306,2.18193 -2.922908,3.67423 -5.145425,5.02982 -7.295751,10.52673 -7.153548,18.28673 0.174694,9.53301 0.317079,10.07346 3.442841,13.06813 2.691998,2.5791 2.705935,2.65482 0.833334,4.52742 -4.334815,4.33481 -0.758448,10.62927 5.46545,9.61928 3.323871,-0.53939 3.448171,-0.43626 4.650689,3.85871 1.49065,5.32408 0.110499,7.92716 -3.696387,6.97169 -2.992623,-0.7511 -2.931932,-0.28888 0.644639,4.90948 2.983605,4.33652 8.456012,9.54529 10.028432,9.54529 0.4641,0 1.14032,-1.35 1.50273,-3 z m -7.500004,-39.44098 c 0,-1.40746 0.45,-2.55902 1,-2.55902 0.550004,0 1.000004,0.87344 1.000004,1.94098 0,1.06754 -0.45,2.2191 -1.000004,2.55902 -0.567158,0.35052 -1,-0.48962 -1,-1.94098 z m -5.265008,-6.80902 c -0.569625,-1.64946 1.302733,-5.75 2.625523,-5.75 0.630138,0 0.566928,0.47256 -0.160515,1.2 -1.566662,1.56666 -1.538145,4.49689 0.05,5.13772 0.779507,0.31454 0.622676,0.5341 -0.416667,0.58333 -0.916666,0.0434 -1.86092,-0.48355 -2.098341,-1.17105 z m 62.179212,43.70965 c -1.62661,-1.6266 -3.14191,-2.3095 -4.21279,-1.89856 -1.47832,0.56728 -1.41295,0.8583 0.56307,2.50707 1.22954,1.02592 3.12529,1.88027 4.21279,1.89857 1.81687,0.0306 1.7712,-0.17281 -0.56307,-2.50708 z m 41.01214,-9.36664 c 1.66106,-2.09727 2.73039,-4.10295 2.37628,-4.45706 -0.35411,-0.35411 0.41138,-1.76706 1.70108,-3.13989 1.28971,-1.37283 1.97174,-2.49606 1.51563,-2.49606 -0.45612,0 -0.0123,-0.90276 0.98622,-2.00613 0.99854,-1.10337 1.53158,-2.29008 1.18453,-2.63712 -0.34704,-0.34705 0.28417,-1.91622 1.4027,-3.48705 1.11853,-1.57083 1.75942,-3.29982 1.42421,-3.84221 -0.33521,-0.54239 -0.0609,-2.00796 0.60949,-3.25682 1.23431,-2.29927 1.44961,-3.34564 2.5129,-12.21332 1.11424,-9.29263 -3.44606,-22.81967 -10.1666,-30.15679 -1.91003,-2.08527 -3.48775,-3.36596 -3.50605,-2.84598 -0.0183,0.51998 -0.87996,-0.0696 -1.91481,-1.31016 -1.2576,-1.5076 -2.0209,-1.83921 -2.3018,-1 -0.23871,0.71316 -1.12224,-0.0405 -2.04516,-1.74442 -0.89369,-1.65 -1.6429,-2.35906 -1.66492,-1.57569 -0.0278,0.9878 -0.83092,0.68133 -2.6206,-1 -1.41931,-1.33337 -2.88181,-2.3691 -3.25,-2.30163 -0.72214,0.13234 -2.15575,-0.24109 -4.91944,-1.28144 -0.9625,-0.36232 -2.13487,-0.57153 -2.60526,-0.46491 -0.47039,0.10661 -1.37039,-0.21327 -2,-0.71085 -2.22576,-1.75904 -8.63659,-2.22544 -15.10536,-1.09895 -3.60211,0.62728 -6.7741,1.50424 -7.04886,1.94881 -0.27476,0.44457 2.53997,1.78584 6.25496,2.9806 12.34698,3.97088 17.63166,7.14627 27.09374,16.27973 16.33646,15.76909 18.25401,42.58051 4.65993,65.15573 -1.92453,3.196 -3.49915,6.0192 -3.49915,6.27378 0,1.06594 8.14233,-6.09707 10.92634,-9.61217 z m -1.53875,-59.62422 c -1.77033,-2.70186 -1.36957,-4.05959 0.937,-3.17447 1.53215,0.58794 2.93121,5.70568 1.55979,5.70568 -0.46105,0 -1.5846,-1.13904 -2.49679,-2.53121 z M 91.252202,244.61222 c -0.753001,-1.5125 -1.816178,-3.91892 -2.362616,-5.34761 -0.912269,-2.38516 -8.17527,-7.79663 -8.17527,-6.09117 0,1.57806 10.284231,14.02854 11.70349,14.16869 0.111919,0.0111 -0.412603,-1.21741 -1.165604,-2.72991 z m 123.462118,-3.85765 c 0,-0.82763 -1.94173,-1.29565 -2.38691,-0.57533 -0.28881,0.46731 0.13009,0.84965 0.9309,0.84965 0.8008,0 1.45601,-0.12345 1.45601,-0.27432 z M 96.673326,235.61222 c -0.02255,-0.4125 -2.31153,-1.81573 -5.086633,-3.11829 -5.496471,-2.57989 -8.515407,-6.46247 -9.433131,-12.13171 -0.311615,-1.925 -1.057688,-4.625 -1.65794,-6 l -1.091368,-2.5 -0.781768,3.5 c -0.995431,4.45658 0.446905,11.05821 2.840261,13 1.016856,0.825 2.157545,2.30632 2.534864,3.29183 0.37732,0.9855 2.155436,2.43039 3.95137,3.21085 3.507057,1.52408 8.791537,1.97674 8.724345,0.74732 z m 58.352404,-4.69888 c 11.14324,-5.63796 15.18337,-13.24279 10.45104,-19.67224 -1.24435,-1.6906 -3.50961,-3.72151 -5.03392,-4.51313 -2.75582,-1.43119 -2.75158,-1.41326 0.75,3.17406 5.82372,7.62949 4.69443,9.84555 -8.41099,16.50525 -7.18454,3.65092 -12.43624,4.72376 -14.54724,2.97178 -1.2226,-1.01466 -1.6201,-0.92034 -2.17095,0.51514 -1.98488,5.17254 9.52985,5.79141 18.96206,1.01914 z m 0.61601,-9.18598 c 2.48487,-3.159 2.63634,-6.11525 0.47167,-9.20575 -3.75327,-5.35853 -11.50847,-4.53519 -14.02556,1.48905 -1.22751,2.93784 -1.21624,3.75505 0.0865,6.27433 1.74562,3.37565 2.74121,3.89145 7.71736,3.99828 2.83658,0.0609 4.15131,-0.52351 5.75,-2.55591 z M 77.091408,209.54405 c 0.453865,-0.725 1.398929,-1.09802 2.100143,-0.82894 0.944436,0.36241 1.392255,-1.53742 1.727514,-7.32884 0.581527,-10.04552 3.872256,-16.76232 13.001634,-26.53796 l 6.716401,-7.19185 -2.00035,-2.14712 c -1.979954,-2.12523 -4.585321,-3.02871 -3.453661,-1.19765 0.322744,0.52222 -1.105699,1.26699 -3.174318,1.65507 -2.977778,0.55863 -3.355638,0.84783 -1.814241,1.38852 1.718308,0.60275 1.623495,0.7641 -0.807563,1.37425 -1.514946,0.38023 -2.49633,1.10897 -2.180853,1.61942 0.315477,0.51045 -0.791119,1.63382 -2.459102,2.49636 -1.667983,0.86255 -3.032696,1.80827 -3.032696,2.10161 0,0.29333 0.5625,0.21218 1.25,-0.18034 0.6875,-0.39253 -0.07169,0.70591 -1.687091,2.44098 -1.6154,1.73506 -2.543048,3.15466 -2.061439,3.15466 0.481609,0 -0.09895,0.90798 -1.290129,2.01773 -4.734148,4.41053 -6.504321,19.31934 -3.832461,32.27788 l 1.073068,5.20439 0.549967,-4.5 c 0.302482,-2.475 0.921312,-5.09318 1.375177,-5.81817 z m -6.032594,-3.45859 c -0.735636,-8.73856 0.977147,-16.89993 5.450862,-25.97324 2.101681,-4.2625 3.512604,-7.75 3.135384,-7.75 -0.853776,0 -2.68844,2.15986 -2.973026,3.5 -0.524733,2.47101 -1.390793,4.15046 -3.152382,6.11305 -1.043152,1.16217 -1.780493,2.51217 -1.638536,3 0.141957,0.48782 -0.299006,1.89137 -0.979919,3.11899 -1.368746,2.46772 -1.841004,16.01327 -0.734014,21.05337 1.106087,5.03598 1.468561,3.79112 0.891631,-3.06217 z m 212.655506,-2.74229 c 0,-0.60496 -1.11746,-0.75097 -2.75,-0.35933 -3.92599,0.94185 -4.05794,1.37838 -0.41667,1.37838 1.74167,0 3.16667,-0.45857 3.16667,-1.01905 z m -72.56969,-26.73095 c -1.6396,-7.41839 -3.93958,-13.22321 -7.11042,-17.94564 -3.17348,-4.72637 -9.08713,-10.30436 -10.92443,-10.30436 -0.40589,0 -1.63826,-0.7875 -2.73861,-1.75 -1.10035,-0.9625 -1.67173,-1.1875 -1.26973,-0.5 1.0368,1.77312 -0.88918,1.55491 -2.40586,-0.27258 -0.69835,-0.84146 -2.05751,-1.27061 -3.03829,-0.95932 -0.97606,0.30979 -2.02841,0.15268 -2.33855,-0.34914 -0.31014,-0.50182 -4.14312,-0.80152 -8.51774,-0.66601 -6.45561,0.19997 -9.14366,0.8137 -14.27027,3.25818 -3.47402,1.65649 -7.21641,3.76271 -8.31641,4.6805 -2,1.6687 -2,1.6687 0,0.7313 2.29251,-1.07449 13.77734,-0.64123 23.4212,0.88357 10.42003,1.64751 21.73622,7.65369 28.5856,15.17209 3.14235,3.44928 6.18606,7.28391 6.76379,8.52141 1.46725,3.14278 2.89194,2.81295 2.15972,-0.5 z m -94.30118,-6.83948 3.73663,-2.58949 -3.5996,-3.16048 c -1.97977,-1.73827 -4.47244,-4.5105 -5.53927,-6.16052 -1.06683,-1.65001 -1.69859,-2.25855 -1.40392,-1.3523 0.29467,0.90625 0.8507,4.84375 1.23561,8.75 0.38491,3.90625 0.95501,7.10227 1.26688,7.10227 0.31187,0 2.24852,-1.16527 4.30367,-2.58948 z M 87.214316,165.8181 c 3.3,-2.99875 5.4375,-5.45308 4.75,-5.45407 -0.6875,-0.001 -1.25,0.44819 -1.25,0.99819 0,0.55 -0.471487,1 -1.047749,1 -0.576262,0 -2.090364,1.125 -3.364671,2.5 -1.274307,1.375 -2.854377,2.5 -3.511268,2.5 -0.65689,0 -0.933324,0.42234 -0.614297,0.93854 0.319028,0.5162 -0.216915,1.40251 -1.190983,1.96959 -0.974067,0.56708 -1.321032,1.02407 -0.771032,1.01553 0.55,-0.008 3.7,-2.46904 7,-5.46778 z m 146.627564,-4.1196 c 1.2554,-1.52183 1.15924,-1.55292 -1.12756,-0.36454 -3.35245,1.74216 -3.60481,2.02826 -1.78911,2.02826 0.84932,0 2.16182,-0.74867 2.91667,-1.66372 z m -97.21139,-1.94583 c 2.13364,-1.26037 2.70946,-2.33386 2.65429,-4.94831 l -0.0705,-3.33877 -3.33208,3.19832 c -6.32477,6.07087 -5.89239,9.01148 0.74825,5.08876 z M 112.6881,144.61222 c 0.026,-2.23072 3.19476,-6.25 4.92744,-6.25 0.49568,0 1.8305,-1.575 2.96628,-3.5 2.07012,-3.5086 1.6889,-4.59094 -0.7925,-2.25 -1.04482,0.98568 -1.2457,0.98775 -0.95,0.01 0.42688,-1.41179 15.94904,-15.2598 17.10463,-15.2598 0.41574,0 -2.27834,2.95984 -5.98687,6.57741 l -6.74276,6.57741 5.87997,-4.65157 c 3.23398,-2.55837 6.94648,-5.05707 8.25,-5.55266 1.30352,-0.4956 2.37003,-1.58723 2.37003,-2.42584 0,-0.83861 0.45,-1.52475 1,-1.52475 0.55,0 1,-1.18125 1,-2.625 0,-2.40667 -0.25992,-2.57301 -3.125,-2 -1.71875,0.34375 -3.96875,0.625 -5,0.625 -1.15454,0 -1.875,0.70759 -1.875,1.84149 0,1.93726 -10.38077,12.46338 -15.5,15.71703 -1.65,1.04869 -3.5781,2.68789 -4.28467,3.64264 -0.70657,0.95476 -3.31544,2.63423 -5.7975,3.73216 -4.57479,2.02365 -10.424245,6.06018 -8.802693,6.07448 1.510307,0.0133 3.339493,4.83386 2.019581,5.32229 -2.315176,0.85674 1.360312,3.06643 4.932132,2.96518 2.4377,-0.0691 3.76789,0.41347 4.19293,1.52113 0.46231,1.20476 1.08138,0.60065 2.40516,-2.34703 0.98044,-2.18315 1.79441,-4.98187 1.80884,-6.21937 z m -22.753408,3.70184 c 0.393695,-2.68241 0.270916,-2.8717 -1.023245,-1.57754 -0.808841,0.80884 -1.198208,2.18051 -0.86526,3.04816 0.892711,2.32637 1.387812,1.94082 1.888505,-1.47062 z m 54.306148,-0.92983 c 2.69702,2.23833 2.60822,0.36328 -0.18483,-3.90275 l -2.71918,-4.1532 -1.73636,4.57426 c -0.95499,2.51584 -2.33256,5.31668 -3.06125,6.22409 -0.7287,0.9074 0.36366,0.3774 2.42746,-1.17778 3.11117,-2.34443 4.0124,-2.61179 5.27416,-1.56462 z m 14.15032,-3.6785 c 0.27719,0.27719 2.37579,-0.15646 4.66357,-0.96367 2.28777,-0.8072 6.47411,-1.56039 9.30297,-1.67374 2.82886,-0.11335 4.96775,-0.49838 4.75308,-0.85562 -1.2369,-2.05841 -18.39646,-3.71047 -18.39646,-1.77114 0,0.46396 -1.722,1.30726 -3.82667,1.87399 -3.45008,0.92901 -4.71409,2.24809 -6.83189,7.12952 -0.13907,0.32057 2.0161,-0.50304 4.78928,-1.83023 2.77318,-1.3272 5.26894,-2.1863 5.54612,-1.90911 z m -5.59023,-5.94787 c 1.30224,-1.5691 1.00976,-1.65936 -3.8608,-1.19136 -2.89838,0.2785 -5.54585,0.78242 -5.88326,1.11983 -0.3374,0.33741 0.14325,1.76837 1.06813,3.17992 l 1.6816,2.56645 2.79268,-1.98856 c 1.53597,-1.09371 3.42671,-2.75253 4.20165,-3.68628 z m -12.17221,-1.89564 c 0.0302,-0.55 -0.38124,-0.325 -0.9144,0.5 -0.53316,0.825 -0.94464,2.175 -0.9144,3 0.058,1.58385 1.72467,-1.60578 1.8288,-3.5 z m -39.68993,-16.25038 c 0.25624,-0.97986 0.15622,-2.66433 -0.22225,-3.74328 -0.67501,-1.92431 -0.70923,-1.92232 -1.79384,0.10429 -1.153847,2.15599 -0.546727,6.71651 0.784599,5.89371 0.421081,-0.26024 0.975251,-1.27487 1.231491,-2.25472 z m 52.19374,-6.85661 c 3.09196,-1.18649 1.40977,-9.77032 -2.37832,-12.13602 -1.51617,-0.94687 -2.26077,-0.638051 -4.48764,1.86123 -2.18596,2.45337 -2.34202,2.94076 -0.86106,2.68912 1.2822,-0.21786 2.39108,0.91944 3.80881,3.90642 1.1,2.31757 2.0757,4.23007 2.16821,4.25 0.0925,0.0199 0.88002,-0.2369 1.75,-0.57075 z m 8.43076,-6.24198 c 3.66843,-3.66843 -0.94526,-14.207407 -5.57618,-12.737608 -1.95369,0.620075 -2.00568,0.871701 -0.69801,3.378278 0.77709,1.489566 1.41567,3.909 1.41906,5.37651 0.008,3.29288 0.92758,5.83179 2.11315,5.83179 0.49115,0 1.72505,-0.83204 2.74198,-1.84897 z m -6.26766,-5.56932 c -0.7386,-3.937072 -2.21041,-5.352612 -3.8552,-3.707821 -0.7995,0.799499 -0.50278,1.734933 1.08713,3.427321 1.20272,1.28023 2.18676,2.93619 2.18676,3.67991 0,0.74372 0.27902,1.0732 0.62004,0.73218 0.34102,-0.34102 0.32359,-2.20024 -0.0387,-4.13159 z m 15.01684,2.02311 c 0.85523,-2.2287 -1.45792,-9.33026 -4.00277,-12.288824 -2.26992,-2.638942 -2.40918,-2.668017 -4.91498,-1.026152 l -2.57888,1.689743 3.44924,5.237403 c 1.89708,2.880572 3.44924,5.81017 3.44924,6.51021 0,1.72778 3.9283,1.62323 4.59815,-0.12238 z m 5.3951,-2.39827 c 1.99112,-1.612308 2.10751,-2.182093 1.15239,-5.641266 -1.29846,-4.70264 -4.74983,-8.565283 -7.65329,-8.565283 -3.4034,0 -3.55705,0.937257 -0.85526,5.217166 1.38791,2.198595 2.77123,5.524158 3.07404,7.39014 0.6297,3.880403 1.20136,4.093893 4.28212,1.599243 z m 5.39976,-3.788336 c 1.84821,-4.81636 -0.79092,-12.418213 -4.31122,-12.418213 -3.53917,0 -3.89123,1.191993 -1.42529,4.825709 1.3714,2.02086 2.74097,4.911791 3.04348,6.424291 0.61324,3.066098 1.77188,3.568703 2.69303,1.168213 z"
       id="path4147"
       inkscape:connector-curvature="0" />
  </g>
</svg>
